<?xml version="1.0" standalone="no"?><!DOCTYPE svg PUBLIC "-//W3C//DTD SVG 1.1//EN" "http://www.w3.org/Graphics/SVG/1.1/DTD/svg11.dtd"><svg class="icon" width="200px" height="200.00px" viewBox="0 0 1024 1024" version="1.1" xmlns="http://www.w3.org/2000/svg"><path d="M754.272 433.696 497.92 689.92C489.184 698.912 476.864 704 463.968 704 451.04 704 438.72 698.912 429.984 689.92L269.728 529.792C251.424 510.432 251.424 481.184 269.728 461.824 278.144 453.472 289.664 448.544 301.856 448.128 315.36 447.52 328.48 452.512 337.728 461.824L463.968 588 686.304 365.792C695.168 356.992 707.456 352 720.288 352 733.152 352 745.408 356.992 754.272 365.792 772.576 385.12 772.576 414.368 754.272 433.696M895.872 0 128.128 0C57.248 0 0 57.376 0 128.16L0 895.872C0 966.752 57.376 1024 128.128 1024L895.872 1024C966.752 1024 1024 966.656 1024 895.872L1024 128.16C1024 57.248 966.624 0 895.872 0" fill="#ffffff" /></svg>