<?xml version="1.0" standalone="no"?><!DOCTYPE svg PUBLIC "-//W3C//DTD SVG 1.1//EN" "http://www.w3.org/Graphics/SVG/1.1/DTD/svg11.dtd"><svg class="icon" width="200px" height="200.00px" viewBox="0 0 1024 1024" version="1.1" xmlns="http://www.w3.org/2000/svg"><path d="M464 464 304.16 464C277.344 464 256 485.504 256 512 256 538.688 277.568 560 304.16 560L464 560 464 719.84C464 746.656 485.504 768 512 768 538.688 768 560 746.432 560 719.84L560 560 719.84 560C746.656 560 768 538.496 768 512 768 485.312 746.432 464 719.84 464L560 464 560 304.16C560 277.344 538.496 256 512 256 485.312 256 464 277.568 464 304.16L464 464ZM0 128.128C0 57.376 57.248 0 128.128 0L895.872 0C966.624 0 1024 57.248 1024 128.128L1024 895.872C1024 966.624 966.752 1024 895.872 1024L128.128 1024C57.376 1024 0 966.752 0 895.872L0 128.128Z" fill="#ffffff" /></svg>